<svg xmlns="http://www.w3.org/2000/svg" width="90" height="90" viewBox="0 0 90 90">
  <defs>
    <style>
      .cls-1 {
        fill: #5c8bb0;
      }

      .cls-2 {
        fill: #b8d0e0;
      }

      .cls-3 {
        fill: #231f20;
        opacity: 0.2;
      }

      .cls-4 {
        fill: #666463;
      }

      .cls-5 {
        fill: #8a8886;
      }

      .cls-6 {
        fill: #8c8a88;
      }

      .cls-7 {
        fill: #bebdb9;
      }

      .cls-8 {
        fill: #dad7d5;
      }
    </style>
  </defs>
  <g id="Layer_1" data-name="Layer 1">
    <g>
      <circle class="cls-1" cx="39.87" cy="40.67" r="30.72"/>
      <path class="cls-2" d="M11,40.67,12.67,28.6A15.3,15.3,0,0,1,28,13.31l11.9-3V40.67Z"/>
      <path class="cls-2" d="M39.87,68.89V40.67H69.71L67.07,52.75A15.3,15.3,0,0,1,51.77,68Z"/>
      <path class="cls-3" d="M80.49,72.54,66.82,58.87l.4-.61a31.39,31.39,0,1,0-8.94,8.94l.61-.4L72.58,80.49a3.16,3.16,0,0,0,2.26,1.16c1.15,0,2.51-.81,4.26-2.57s2.59-3.13,2.57-4.29A3.17,3.17,0,0,0,80.49,72.54ZM41,65.06A24.11,24.11,0,1,1,65.08,41,24,24,0,0,1,41,65.06Z"/>
      <path class="cls-4" d="M59,69.3,74.6,85a4.51,4.51,0,0,0,3.28,1.63c1.78,0,3.61-1.29,5.51-3.2,3.08-3.08,4.55-5.94,1.57-8.79L69.31,58.94"/>
      <path class="cls-5" d="M67.9,60.36,83.58,76a2.5,2.5,0,0,1,1,1.81c0,1-.87,2.38-2.61,4.12s-3.11,2.61-4.1,2.61c-.22,0-.87,0-1.86-1L60.36,67.89"/>
      <path class="cls-4" d="M74.3,63.93l-5-5L59,69.3l5,5A42.52,42.52,0,0,0,74.3,63.93Z"/>
      <path class="cls-6" d="M39.87,3.4A36.46,36.46,0,1,0,76.33,39.86,36.47,36.47,0,0,0,39.87,3.4Zm0,65.49a29,29,0,1,1,29-29A29,29,0,0,1,39.87,68.89Z"/>
      <path class="cls-7" d="M39.87,5.4A34.46,34.46,0,1,0,74.33,39.86,34.46,34.46,0,0,0,39.87,5.4Zm0,61.66a27.2,27.2,0,1,1,27.2-27.2A27.2,27.2,0,0,1,39.87,67.06Z"/>
      <path class="cls-8" d="M12.68,39.86A27.19,27.19,0,0,1,53.29,16.21,48.93,48.93,0,0,0,54.37,8.6,34.46,34.46,0,0,0,9,55.09a48.92,48.92,0,0,0,7.58-1.25A27.06,27.06,0,0,1,12.68,39.86Z"/>
    </g>
  </g>
</svg>
