<svg xmlns="http://www.w3.org/2000/svg" width="90" height="90" viewBox="0 0 90 90">
  <defs>
    <style>
      .cls-1 {
        isolation: isolate;
      }

      .cls-2 {
        fill: #e7e6e5;
      }

      .cls-3 {
        fill: #7b7b7b;
        opacity: 0.4;
        mix-blend-mode: multiply;
      }

      .cls-4 {
        fill: #fff;
      }

      .cls-5 {
        fill: #6c9d41;
      }

      .cls-6 {
        fill: #bebdb9;
      }

      .cls-7 {
        fill: #666564;
      }

      .cls-8 {
        fill: #a7c56a;
      }
    </style>
  </defs>
  <g class="cls-1">
    <g id="Layer_1" data-name="Layer 1">
      <g>
        <g>
          <path class="cls-2" d="M5.19,10.15V79a5.56,5.56,0,0,0,5.56,5.56H79.63A5.56,5.56,0,0,0,85.19,79V26.19L63.6,4.59H10.75A5.56,5.56,0,0,0,5.19,10.15Z"/>
          <polygon class="cls-3" points="66.31 7.31 66.31 25.15 85.19 36.16 85.19 26.19 66.31 7.31"/>
          <path class="cls-4" d="M85.19,26.19,63.6,4.59V20.14a6,6,0,0,0,6,6.05Z"/>
          <rect class="cls-5" x="50.58" y="31.65" width="26.12" height="26.28"/>
          <rect class="cls-6" x="14.46" y="31.65" width="28.63" height="9.52"/>
          <rect class="cls-6" x="14.46" y="48.41" width="28.63" height="9.52"/>
          <rect class="cls-7" x="14.46" y="14.89" width="41.81" height="9.52"/>
          <rect class="cls-6" x="14.46" y="65.17" width="62.23" height="9.52"/>
        </g>
        <rect class="cls-8" x="50.58" y="31.65" width="13.06" height="13.14"/>
        <rect class="cls-8" x="63.64" y="44.79" width="13.06" height="13.14"/>
      </g>
    </g>
  </g>
</svg>
