<svg xmlns="http://www.w3.org/2000/svg" width="90" height="90" viewBox="0 0 90 90">
  <defs>
    <style>
      .cls-1 {
        fill: #4c4847;
      }

      .cls-2 {
        fill: #99daf6;
      }

      .cls-3 {
        fill: #cfeaf3;
      }

      .cls-4 {
        fill: #4e7838;
      }

      .cls-5 {
        fill: #6c9d41;
      }

      .cls-6 {
        fill: #94bb48;
      }
    </style>
  </defs>
  <g id="Layer_1" data-name="Layer 1">
    <g>
      <g>
        <path class="cls-1" d="M81.17,5H8.83A8.84,8.84,0,0,0,0,13.83V61.61a8.84,8.84,0,0,0,8.83,8.84H81.17A8.84,8.84,0,0,0,90,61.61V13.83A8.84,8.84,0,0,0,81.17,5Z"/>
        <rect class="cls-2" x="8.18" y="13.17" width="73.64" height="49.09"/>
        <path class="cls-3" d="M81.82,13.17C34.9,27.68,8.18,62.26,8.18,62.26V13.17Z"/>
      </g>
      <g>
        <path class="cls-4" d="M60.2,69.2c-7-5.35-7.86-10-8-12.92h5.1l.57-1.05a9.91,9.91,0,0,0,1.28-4.92V49.23l-5.52-3.64a11.32,11.32,0,0,0-4.35-17.74l-.8-.4-.14.06A11.32,11.32,0,0,0,36.33,45.59l-5.52,3.64v1.08a9.91,9.91,0,0,0,1.28,4.92l.57,1.05h5.1v.1c-.11,3-1,7.56-8,12.82a15.28,15.28,0,0,0-5,7l-.12.28-.05.18L24,78.42l.09,0a21.29,21.29,0,0,0-.52,4.7c0,3.82,7.2,5.76,21.4,5.76S66.4,87,66.4,83.16C66.4,77.29,64.14,72.21,60.2,69.2Z"/>
        <g>
          <path class="cls-5" d="M44.66,74.13c1.05-4.78,2-9.87,2.54-12.92.71-3.81-5.07-4.49-7.44-4.84-.11,3.25-1,8.53-8.75,14.42a13.42,13.42,0,0,0-4.53,6.61c2.09,1,4.87,1.63,9.17,1.63C38.4,79,43.51,79.36,44.66,74.13Z"/>
          <path class="cls-5" d="M48.71,54.28a10,10,0,0,0,.8-4L45.7,45.87c4-1.73,6.49-5,6.49-8.77a9.3,9.3,0,0,0-3.67-7.41h0a9.32,9.32,0,0,0-9,16.19l-6.73,4.44a7.89,7.89,0,0,0,1,4Z"/>
          <path class="cls-6" d="M44.47,30.89c5.37.84-2.48,7.08-5,6.79S39.42,30.11,44.47,30.89Z"/>
        </g>
      </g>
    </g>
  </g>
</svg>
