<svg xmlns="http://www.w3.org/2000/svg" width="90" height="90" viewBox="0 0 90 90">
  <defs>
    <style>
      .cls-1 {
        fill: #bebdb9;
      }

      .cls-2 {
        fill: #e58f2a;
      }

      .cls-3 {
        fill: #4c4847;
      }

      .cls-4 {
        fill: #312e2b;
      }
    </style>
  </defs>
  <g id="Layer_1" data-name="Layer 1">
    <g>
      <g>
        <polygon class="cls-1" points="45 18.06 12.27 18.06 12.27 9.44 12.27 5.13 45 5.13 45 18.06"/>
        <polygon class="cls-2" points="77.73 18.06 45 18.06 45 5.12 77.73 5.12 77.73 9.44 77.73 18.06"/>
        <rect class="cls-3" x="5" y="12.13" width="80" height="72.73" rx="3.64"/>
      </g>
      <g>
        <path class="cls-4" d="M77.73,66.1c0,4.21-4.21,4.21-4.21,4.21h-57s-4.21,0-4.21-4.21V30.89s0-4.21,4.21-4.21h57c4.21,0,4.21,4.21,4.21,4.21Z"/>
        <rect class="cls-1" x="19.55" y="33.95" width="50.91" height="29.09"/>
        <g>
          <path class="cls-4" d="M30.73,58.37A4.22,4.22,0,0,1,27.14,57a6.82,6.82,0,0,1-1.08-4.17h2.55c0,.38,0,.73,0,1a4.89,4.89,0,0,0,.17,1,2.7,2.7,0,0,0,.36.82,1.66,1.66,0,0,0,.63.53,2.09,2.09,0,0,0,1,.21,2.37,2.37,0,0,0,.78-.12,2,2,0,0,0,.57-.32,1.58,1.58,0,0,0,.39-.55,4,4,0,0,0,.25-.68,5.1,5.1,0,0,0,.14-.87c0-.35.06-.67.07-1s0-.64,0-1.08,0-1.06,0-1.45a8.17,8.17,0,0,0-.17-1.12,2.35,2.35,0,0,0-.37-.87,1.77,1.77,0,0,0-.63-.51,2.36,2.36,0,0,0-1-.19,2,2,0,0,0-1.29.46,3.11,3.11,0,0,0-.85,1.14H26.49V38.89H34.8v2.54h-6l-.15,5.33a3.65,3.65,0,0,1,2.78-1.07,4.19,4.19,0,0,1,1.95.42,3.11,3.11,0,0,1,1.28,1.21,6.25,6.25,0,0,1,.66,1.79,11.24,11.24,0,0,1,.21,2.29,17.06,17.06,0,0,1-.13,2.25,8.47,8.47,0,0,1-.47,1.91,4.89,4.89,0,0,1-.86,1.51,3.74,3.74,0,0,1-1.38,1A5.1,5.1,0,0,1,30.73,58.37Z"/>
          <path class="cls-4" d="M37.71,44.85V42.13h2.57v2.72Zm0,7.58V49.72h2.57v2.71Z"/>
          <path class="cls-4" d="M47.47,58.38a4.24,4.24,0,0,1-3.57-1.55,6.62,6.62,0,0,1-1.2-4.15V44.39a6.67,6.67,0,0,1,1.17-4.17,4.27,4.27,0,0,1,3.6-1.51,4.28,4.28,0,0,1,3.59,1.51,6.61,6.61,0,0,1,1.18,4.17v8.29a6.65,6.65,0,0,1-1.19,4.16A4.26,4.26,0,0,1,47.47,58.38Zm0-2.09c1.47,0,2.2-1.2,2.2-3.58V44.37A9.27,9.27,0,0,0,49.59,43a4.58,4.58,0,0,0-.32-1.11,1.81,1.81,0,0,0-.69-.82,2.36,2.36,0,0,0-2.23,0,1.81,1.81,0,0,0-.69.82A4.58,4.58,0,0,0,45.34,43a10.88,10.88,0,0,0-.08,1.37v8.34C45.26,55.09,46,56.29,47.47,56.29Z"/>
          <path class="cls-4" d="M59.16,58.38a4.24,4.24,0,0,1-3.56-1.55,6.63,6.63,0,0,1-1.21-4.15V44.39a6.67,6.67,0,0,1,1.18-4.17,4.25,4.25,0,0,1,3.59-1.51,4.28,4.28,0,0,1,3.6,1.51,6.61,6.61,0,0,1,1.18,4.17v8.29a6.59,6.59,0,0,1-1.2,4.16A4.23,4.23,0,0,1,59.16,58.38Zm0-2.09c1.47,0,2.21-1.2,2.21-3.58V44.37A9.16,9.16,0,0,0,61.28,43,4.15,4.15,0,0,0,61,41.89a1.81,1.81,0,0,0-.69-.82,2.07,2.07,0,0,0-1.12-.28,2,2,0,0,0-1.11.28,1.69,1.69,0,0,0-.69.82A4.58,4.58,0,0,0,57,43,9.16,9.16,0,0,0,57,44.37v8.34C57,55.09,57.69,56.29,59.16,56.29Z"/>
        </g>
      </g>
    </g>
  </g>
</svg>
