<svg xmlns="http://www.w3.org/2000/svg" viewBox="0 0 90 90"><defs><clipPath id="clip-path"><path class="cls-1" d="M72.95 26.67h-55.9v50.48L45 72.64l27.95 4.51V26.67z"/></clipPath><style>.cls-1{fill:#7ea650}.cls-2{fill:#95704d}.cls-3{fill:#a88865}.cls-8{fill:#fff;opacity:.4}</style></defs><g id="Layer_1" data-name="Layer 1"><path class="cls-2" d="M0 0h4.42a2.34 2.34 0 0 1 2.33 2.33v9.91a2.34 2.34 0 0 1-2.34 2.34H0V0Z"/><path class="cls-3" d="M0 0h4.76a2 2 0 0 1 2 2v6.57a2 2 0 0 1-2 2H0V0Z"/><path class="cls-2" d="M83.25 0h4.42A2.34 2.34 0 0 1 90 2.33v9.91a2.34 2.34 0 0 1-2.34 2.34h-4.41V0Z" transform="rotate(-180 86.625 7.285)"/><path class="cls-3" d="M83.25 0H88a2 2 0 0 1 2 2v6.57a2 2 0 0 1-2 2h-4.75V0Z" transform="rotate(-180 86.625 5.275)"/><path class="cls-3" d="M6.75 3.25h76.49v4.03H6.75z"/><path class="cls-2" d="M6.75 7.29h76.49v4.03H6.75z"/><path style="fill:#96b666" d="M72.95 2.19v14.92h-55.9V2.19H6.75v87.8L45 82.56l38.25 7.43V2.19h-10.3z"/><path class="cls-1" d="M72.95 17.11H45v65.45l38.25 7.43V2.19h-10.3v14.92z"/><path class="cls-1" d="M72.95 26.67h-55.9v50.48L45 72.64l27.95 4.51V26.67z"/><g style="clip-path:url(#clip-path)"><path style="fill:#5d8741" d="M45 26.67h27.95v50.48L45 72.64V26.67z"/></g><path d="M55.93 59c-4.85-3.07-5.78-6.78-6.06-8.78h3.28a6.6 6.6 0 0 0 1.21-3.43V46l-3.71-2.43a8.21 8.21 0 0 0 2.43-5.78 8.07 8.07 0 0 0-16.14 0 8.21 8.21 0 0 0 2.43 5.78L35.66 46v.71a7 7 0 0 0 1.21 3.43h3.29c-.22 2-1.22 5.71-6.07 8.78C31.3 60.74 29.73 64 29.73 68A1.27 1.27 0 0 0 31 69.31c.81.06 6.51.3 14 .3s13.25-.22 14.06-.3a1.28 1.28 0 0 0 1.3-1.31c0-4-1.64-7.26-4.43-9Z" style="fill:#ece8cd"/><path class="cls-8" d="M39.37 43.61 35.66 46h3.2a21.43 21.43 0 0 1 .51-2.39ZM36.8 60.14c2.19-1.6 2.66-6.54 2.72-7.36A12.91 12.91 0 0 1 34.09 59c-2.79 1.74-4.36 5-4.36 9 1.38-4.53 3.46-5.23 7.07-7.86Z"/><path d="M50.39 57.76c2.54 2.39 6.32 3.17 7.89 3.41A8.67 8.67 0 0 0 55.93 59c-4.85-3.07-5.78-6.78-6.06-8.78h3.28a6.6 6.6 0 0 0 1.21-3.43V46l-3.71-2.43a8.21 8.21 0 0 0 2.43-5.78 8 8 0 0 0-5-7.4c2.74 1.66 4.67 6.37 2.16 9.93-1.88 2.65-5.54 3.28-5.54 3.28h4.49s2.21 3.48-.74 5.39L36.24 49a7.77 7.77 0 0 0 .63 1.13h6s4.13 4.43 7.52 7.63Z" style="opacity:.15"/></g></svg>