<svg xmlns="http://www.w3.org/2000/svg" viewBox="0 0 90 90"><defs><style>.cls-1{fill:#bebdb9}.cls-2{fill:#666564}.cls-4{fill:#e7c7a2}.cls-5{fill:#fff}</style></defs><g id="Layer_1" data-name="Layer 1"><path class="cls-1" d="M77.72 90c9 0 7.6-9.82 7.6-13.64a12 12 0 0 0-7.09-10.93l-21.37-9.68h-.13c-.73 5.83-5.8 7.6-11.83 7.6S34 61.54 33.27 55.71h-.13l-21.37 9.72a12 12 0 0 0-7.09 10.93c0 3.82-1.37 13.64 7.6 13.64Z"/><path class="cls-2" d="M25.36 37.15v6.49s2.7 3.25 10.64 3.25-10-11.45-10-11.45ZM64.63 37.15v6.49s-2.7 3.25-10.63 3.25 10-11.45 10-11.45Z"/><path class="cls-1" d="M31.46 52.06h27.08v9.51H31.46z"/><path style="fill:#d3aa84" d="M33.09 49.04h23.82v15.25H33.09z"/><path class="cls-4" d="M63 32.59c0 13.79-8.06 25-18 25s-18-11.18-18-25 8.06-25 18-25 18 11.2 18 25Z"/><path class="cls-4" d="M63.01 28.57H26.99V18.39l18.54-4.62 17.48 4.62v10.18z"/><path class="cls-4" d="M27 18.46C27 9.89 35.05 3 45 3s18 6.89 18 15.46h-2.8l-14.9-4.4-15.44 4.4ZM66 28.62a3 3 0 1 1-3-3 3 3 0 0 1 3 3Z"/><path class="cls-4" d="M66 34.63a3 3 0 1 1-3-3 3 3 0 0 1 3 3Z"/><path class="cls-4" d="M60.01 28.62h6v6.01h-6zM23.98 28.62h6.01v6.01h-6.01z"/><path class="cls-4" d="M30 28.62a3 3 0 1 1-3-3 3 3 0 0 1 3 3Z"/><path class="cls-4" d="M30 34.63a3 3 0 1 1-3-3 3 3 0 0 1 3 3Z"/><path class="cls-5" d="M58.54 52.06 64 58.8 53.18 72.48l-5.43-7.66L45 66.44v-2.15s9.14-4.13 13.54-12.23ZM31.46 52.06 26 58.8l10.8 13.68 5.43-7.66L45 66.44v-2.15s-9.14-4.13-13.54-12.23Z"/><path d="M63.61 28.53a31.91 31.91 0 0 0-7.21-.76c-4 0-8.67 1.3-9.8 1.44a11.44 11.44 0 0 1-1.43.12h-.32a12.19 12.19 0 0 1-1.46-.12c-1.13-.14-5.78-1.44-9.8-1.44a31.79 31.79 0 0 0-7.2.76c-.71.14-.66.54-.66.54l.13 1.81c0 .36.2.44.57.51a.87.87 0 0 1 .6.68c.08.25.58 2.16 1 3.64a5.41 5.41 0 0 0 1.92 3.17c.84.57 3.09.85 5.67.58a8.25 8.25 0 0 0 5.54-2.56 11.62 11.62 0 0 0 2.11-4.16 1.8 1.8 0 0 1 1.63-1.41h.26a1.81 1.81 0 0 1 1.63 1.41 11.31 11.31 0 0 0 2.11 4.16 8.23 8.23 0 0 0 5.54 2.56c2.57.27 4.82 0 5.66-.58a5.36 5.36 0 0 0 1.9-3.17c.39-1.48.89-3.39 1-3.64s.24-.61.61-.68.54-.15.57-.51l.12-1.81s.01-.4-.69-.54ZM41.16 32a7.54 7.54 0 0 1-1 3.88 5.48 5.48 0 0 1-3.62 2.17 12.29 12.29 0 0 1-4.91 0c-1.46-.38-2-1.4-2.25-3.09a9.29 9.29 0 0 1 0-4.13s.53-1.58 3.45-1.68 5.8.16 6.92.72A2 2 0 0 1 41.16 32Zm19.43 3c-.25 1.69-.79 2.71-2.26 3.09a12.24 12.24 0 0 1-4.9 0 5.46 5.46 0 0 1-3.62-2.17 7.55 7.55 0 0 1-1-3.88 2 2 0 0 1 1.39-2.13c1.13-.56 4-.83 6.93-.72s3.45 1.68 3.45 1.68a9.29 9.29 0 0 1 .01 4.13Z" style="fill:#4c4847"/><path class="cls-2" d="M62.67 27.77s.53-8.4-15.14-10.56S30 4.83 30 4.83 36.69-2.61 53.13 1c13.78 3 12.22 13.82 12.22 25.77 0 0-2.35-.43-2.68 1ZM30 4.83s-7.26 5.61-5.12 21.67C24.87 26.5 40 21.9 30 4.83Z"/><path class="cls-2" d="M24.87 26.5s2.45-.26 2.45 1.27a7.37 7.37 0 0 1 2.16-3.92c2-2.24-2.49-2.68-2.49-2.68Z"/></g></svg>