<svg xmlns="http://www.w3.org/2000/svg" width="90" height="90" viewBox="0 0 90 90">
  <defs>
    <style>
      .cls-1 {
        fill: #f0ab21;
      }

      .cls-2 {
        fill: #f7c045;
      }
    </style>
  </defs>
  <g id="Layer_1" data-name="Layer 1">
    <g>
      <g>
        <path class="cls-1" d="M81.05,36.65l6.75-5.56-8.73-.54a10.81,10.81,0,0,1-9.81-13.5l2.19-8.46-7.38,4.7A10.81,10.81,0,0,1,48.21,8.13L45,0,41.79,8.13a10.81,10.81,0,0,1-15.86,5.16l-7.38-4.7,2.19,8.46a10.81,10.81,0,0,1-9.81,13.5l-8.73.54L9,36.65A10.8,10.8,0,0,1,9,53.33L2.2,58.9l8.73.53a10.82,10.82,0,0,1,9.81,13.5L18.55,81.4l7.38-4.7a10.81,10.81,0,0,1,15.86,5.15L45,90l3.21-8.14A10.81,10.81,0,0,1,64.07,76.7l7.38,4.7-2.19-8.47a10.82,10.82,0,0,1,9.81-13.5l8.73-.53-6.75-5.57A10.8,10.8,0,0,1,81.05,36.65ZM45,72.09A27.1,27.1,0,1,1,72.1,45,27.1,27.1,0,0,1,45,72.09Z"/>
        <circle class="cls-1" cx="45" cy="44.99" r="23.22" transform="translate(-2.71 2.88) rotate(-3.56)"/>
      </g>
      <path class="cls-2" d="M31.06,59.41A20.16,20.16,0,0,1,59.57,30.9C67.43,38.76,38.92,67.27,31.06,59.41Z"/>
    </g>
  </g>
</svg>
