<svg xmlns="http://www.w3.org/2000/svg" width="90" height="90" viewBox="0 0 90 90">
  <defs>
    <style>
      .cls-1 {
        fill: #bdbcb8;
      }

      .cls-2 {
        fill: #8a8886;
        opacity: 0.5;
      }

      .cls-3 {
        fill: #f0f0f0;
      }

      .cls-4 {
        fill: #fff;
      }
    </style>
  </defs>
  <g id="Layer_1" data-name="Layer 1">
    <g>
      <g>
        <path class="cls-1" d="M82.84,78.24A23.11,23.11,0,0,0,90,61.77c0-13.86-13-25.09-29.06-25.09S31.87,47.91,31.87,61.77s13,25.12,29.07,25.12A32.71,32.71,0,0,0,74,84.17a38.4,38.4,0,0,0,16,2.72A28.94,28.94,0,0,1,82.84,78.24Z"/>
        <path class="cls-2" d="M79.39,42.39a31.79,31.79,0,0,0-18.45-5.71c-16.06,0-29.07,11.23-29.07,25.09a22.18,22.18,0,0,0,2.84,10.76c.41,0,.82,0,1.25,0C57.25,72.58,75,59.65,79.39,42.39Z"/>
        <path class="cls-3" d="M36,3.06C16.1,3.06,0,17,0,34.13c0,8.94,4.39,17,11.38,22.64A28.27,28.27,0,0,1,2.57,69a37.13,37.13,0,0,0,21.48-5.54A41,41,0,0,0,36,65.2c19.87,0,36-13.91,36-31.07S55.83,3.06,36,3.06Z"/>
      </g>
      <path class="cls-4" d="M53.76,11.34C48.84,8.11,42.56,6.62,36,6.62,18.37,6.62,4.12,18.94,4.12,34.13a24.39,24.39,0,0,0,7.27,17.41C20.65,60.78,75.34,25.51,53.76,11.34Z"/>
    </g>
  </g>
</svg>
