<svg xmlns="http://www.w3.org/2000/svg" width="90" height="90" viewBox="0 0 90 90">
  <defs>
    <style>
      .cls-1 {
        fill: #ca3431;
      }

      .cls-2 {
        fill: #fcd158;
      }

      .cls-3 {
        fill: #f9e089;
      }
    </style>
  </defs>
  <g id="Layer_1" data-name="Layer 1">
    <g>
      <g>
        <rect class="cls-1" x="16.01" y="68.67" width="57.93" height="14.46" rx="0.8"/>
        <path class="cls-2" d="M84.93,25h0A6.82,6.82,0,0,0,74,32.8L62.76,40.58a.72.72,0,0,1-1.06-.21L52.46,25a5.95,5.95,0,0,0-1.54-11.69h0c0-.18,0-.36,0-.54A5.95,5.95,0,1,0,39,12.8c0,.18,0,.36,0,.54h0A5.94,5.94,0,0,0,37.56,25L28.33,40.37a.72.72,0,0,1-1.06.21l-11.4-7.89A6.75,6.75,0,0,0,5,25h0C5,25,5,25.15,5,25.35L16.46,64a1.08,1.08,0,0,0,1,.77H72.57a1.09,1.09,0,0,0,1-.77L85,25.35C85,25.14,85,25,84.93,25Z"/>
      </g>
      <path class="cls-3" d="M39,12.8c0,.18,0,.36,0,.54h0A5.94,5.94,0,0,0,37.56,25L28.33,40.37a.72.72,0,0,1-1.06.21l-11.4-7.89A6.75,6.75,0,0,0,5,25h0C5,25,5,25.15,5,25.35L16.46,64a1.08,1.08,0,0,0,1,.77H31C44.91,40.79,45,7.28,45,6.85A6,6,0,0,0,39,12.8Z"/>
    </g>
  </g>
</svg>
