<svg xmlns="http://www.w3.org/2000/svg" width="90" height="90" viewBox="0 0 90 90">
  <defs>
    <style>
      .cls-1 {
        fill: #dad8d6;
      }

      .cls-2 {
        fill: #bebdb9;
      }

      .cls-3 {
        fill: #8b8987;
      }

      .cls-4 {
        fill: #4c4847;
      }

      .cls-5 {
        fill: #312e2b;
      }

      .cls-6 {
        fill: #a1a0a0;
      }

      .cls-7 {
        fill: #898989;
      }
    </style>
  </defs>
  <g id="Layer_1" data-name="Layer 1">
    <g>
      <g>
        <path class="cls-1" d="M38,63,79.55,21.43C85.62,15.36,85,5,85,5s-10.35-.64-16.42,5.43L26.93,52.07l5.35,5.65Z"/>
        <path class="cls-2" d="M32.28,57.72,38,63,79.55,21.43C85.62,15.36,85,5,85,5Z"/>
        <polygon class="cls-3" points="42.18 58.8 46.08 54.9 39.51 50.48 42.18 58.8"/>
        <path class="cls-3" d="M38.28,75.2c.78.65,3.27-1.44,4.3-2.48a2.94,2.94,0,0,0,.25-3.88C41.38,67,39.75,65,38,63a132.11,132.11,0,0,0-11-11c-2-1.79-4-3.42-5.82-4.86a2.94,2.94,0,0,0-3.88.24c-1,1-3.13,3.52-2.48,4.3Z"/>
        <path class="cls-3" d="M19.68,77.37s-.67,4-2.2,5.48A7.31,7.31,0,1,1,7.14,72.51c1.53-1.52,5.48-2.2,5.48-2.2Z"/>
        <polygon class="cls-4" points="30.94 67.89 19.57 77.29 12.52 70.24 21.88 58.91 30.94 67.89"/>
        <path class="cls-2" d="M30.12,54.94c-1.08-1-2.17-2-3.19-2.87-2-1.79-4-3.42-5.82-4.86a2.94,2.94,0,0,0-3.88.24c-1,1-3.13,3.52-2.48,4.3l4.75,4.73A23.69,23.69,0,0,1,30.12,54.94Z"/>
        <path class="cls-2" d="M7.71,73.5A5.71,5.71,0,0,0,6.24,79a11.73,11.73,0,0,0,10.42-3L12.59,72A5.58,5.58,0,0,0,7.71,73.5Z"/>
        <path class="cls-5" d="M30.94,67.89s-3.29-3-13-4.21l3.94-4.77Z"/>
      </g>
      <g>
        <polygon class="cls-6" points="36.73 38.52 41.44 45.07 45.1 41.41 36.73 38.52"/>
        <polygon class="cls-7" points="41.44 45.07 46.03 51.46 53.27 44.23 45.1 41.41 41.44 45.07"/>
      </g>
      <g>
        <path class="cls-1" d="M52,63,10.45,21.43C4.38,15.36,5,5,5,5s10.35-.64,16.42,5.43L63.07,52.07l-5.34,5.65Z"/>
        <path class="cls-2" d="M57.73,57.72,52,63,10.45,21.43C4.38,15.36,5,5,5,5Z"/>
        <path class="cls-3" d="M51.72,75.2c-.78.65-3.27-1.44-4.3-2.48a2.94,2.94,0,0,1-.25-3.88C48.62,67,50.25,65,52,63a132.11,132.11,0,0,1,11-11c2-1.79,4-3.42,5.82-4.86a2.94,2.94,0,0,1,3.88.24c1,1,3.13,3.52,2.48,4.3Z"/>
        <path class="cls-3" d="M70.32,77.37s.67,4,2.2,5.48A7.31,7.31,0,1,0,82.86,72.51c-1.53-1.52-5.48-2.2-5.48-2.2Z"/>
        <polygon class="cls-4" points="59.06 67.89 70.43 77.29 77.48 70.24 68.12 58.91 59.06 67.89"/>
        <path class="cls-2" d="M59.88,54.94c1.08-1,2.17-2,3.19-2.87,2-1.79,4-3.42,5.82-4.86a2.94,2.94,0,0,1,3.88.24c1,1,3.13,3.52,2.48,4.3L70.5,56.48A23.69,23.69,0,0,0,59.88,54.94Z"/>
        <path class="cls-2" d="M82.29,73.5A5.71,5.71,0,0,1,83.76,79a11.73,11.73,0,0,1-10.42-3L77.41,72A5.58,5.58,0,0,1,82.29,73.5Z"/>
        <path class="cls-5" d="M59.06,67.89s3.29-3,13-4.21l-3.94-4.77Z"/>
      </g>
    </g>
  </g>
</svg>
