<svg xmlns="http://www.w3.org/2000/svg" width="90" height="90" viewBox="0 0 90 90">
  <defs>
    <style>
      .cls-1 {
        fill: #666463;
      }

      .cls-2 {
        fill: #bdbcb8;
      }

      .cls-3 {
        opacity: 0.2;
      }

      .cls-4 {
        fill: #fff;
      }
    </style>
  </defs>
  <g id="Layer_1" data-name="Layer 1">
    <g>
      <g>
        <path class="cls-1" d="M45,5A40,40,0,1,0,85,45,40,40,0,0,0,45,5Zm0,71.25A31.25,31.25,0,1,1,76.25,45,31.25,31.25,0,0,1,45,76.25Z"/>
        <polygon class="cls-2" points="61.21 40.06 49.94 40.06 49.94 28.79 40.06 28.79 40.06 40.06 28.79 40.06 28.79 49.94 40.06 49.94 40.06 61.21 49.94 61.21 49.94 49.94 61.21 49.94 61.21 40.06"/>
      </g>
      <g class="cls-3">
        <path class="cls-4" d="M49.93,39.89V28.79H40.07V40.07H28.79v9.86H39.86A47.46,47.46,0,0,0,49.93,39.89Z"/>
      </g>
    </g>
  </g>
</svg>
