<svg xmlns="http://www.w3.org/2000/svg" width="90" height="90" viewBox="0 0 90 90">
  <defs>
    <style>
      .cls-1 {
        fill: #666463;
      }

      .cls-2 {
        fill: #bdbcb8;
      }

      .cls-3 {
        fill: #c93430;
      }

      .cls-4 {
        fill: #fff;
        opacity: 0.3;
      }

      .cls-5 {
        fill: #8a8886;
      }
    </style>
  </defs>
  <g id="Layer_1" data-name="Layer 1">
    <g>
      <g>
        <path class="cls-1" d="M83,9.33,22.67.42a8,8,0,0,0-9,6.72L13,54.73c-.82,4.3,46.65,27.5,51,28.32H80.4c2,0,2.55-3.22,2.55-3.22l6.8-61.47A8,8,0,0,0,83,9.33Z"/>
        <path class="cls-2" d="M67.6,12.83H10.79a8,8,0,0,0-8,8v54.3a8,8,0,0,0,8,8H80.4c-4.89,0-4.84-7.31-4.84-8V20.79A8,8,0,0,0,67.6,12.83Z"/>
        <path class="cls-3" d="M65,30.06H10.79V23A2.16,2.16,0,0,1,13,20.79H65Z"/>
        <path class="cls-4" d="M6.74,22.28v34a3.54,3.54,0,0,0,3.54,3.53h0C22.08,59.81,60.41,17,46.55,17H12.07A5.35,5.35,0,0,0,6.74,22.28Z"/>
        <rect class="cls-5" x="43.52" y="38.01" width="21.46" height="4.12" rx="0.28"/>
        <rect class="cls-5" x="43.52" y="46.25" width="21.46" height="4.12" rx="0.28"/>
        <rect class="cls-5" x="43.52" y="54.49" width="21.46" height="4.12" rx="0.28"/>
        <rect class="cls-5" x="43.52" y="62.73" width="21.46" height="4.12" rx="0.28"/>
        <rect class="cls-5" x="10.84" y="70.97" width="54.14" height="4.12" rx="0.28"/>
      </g>
      <rect class="cls-1" x="10.84" y="38.07" width="28.77" height="28.78"/>
      <rect class="cls-5" x="10.84" y="38.07" width="14.39" height="14.39"/>
      <rect class="cls-5" x="25.23" y="52.46" width="14.39" height="14.39"/>
    </g>
  </g>
</svg>
