<svg xmlns="http://www.w3.org/2000/svg" width="90" height="90" viewBox="0 0 90 90">
  <defs>
    <style>
      .cls-1 {
        fill: #6c9d41;
      }

      .cls-2 {
        fill: #c5d3a0;
      }

      .cls-3 {
        fill: #fff;
        opacity: 0.2;
      }
    </style>
  </defs>
  <g id="Layer_1" data-name="Layer 1">
    <g>
      <g>
        <path class="cls-1" d="M45,85H13.89A8.89,8.89,0,0,1,5,76.11V45L45,5H76.11A8.89,8.89,0,0,1,85,13.89V45Z"/>
        <path class="cls-2" d="M13.89,5H45a0,0,0,0,1,0,0V45a0,0,0,0,1,0,0H5a0,0,0,0,1,0,0V13.89A8.89,8.89,0,0,1,13.89,5Z"/>
        <path class="cls-2" d="M53.89,45H85a0,0,0,0,1,0,0V85a0,0,0,0,1,0,0H45a0,0,0,0,1,0,0V53.89A8.89,8.89,0,0,1,53.89,45Z" transform="translate(130 130) rotate(-180)"/>
      </g>
      <path class="cls-3" d="M8.67,15V59.3A3.25,3.25,0,0,0,12,62.63c12,0,51.06-54.31,38-54.31H15.33A6.69,6.69,0,0,0,8.67,15Z"/>
    </g>
  </g>
</svg>
