<svg xmlns="http://www.w3.org/2000/svg" width="90" height="90"><defs><style>.cls-2{fill:#e6c7a4}.cls-3{fill:#e7c7a2}.cls-4{fill:#d2aa86}.cls-5{fill:#d3aa84}.cls-8{fill:#eb6150}</style></defs><g id="Layer_1" data-name="Layer 1"><rect x="9.73" y="9.73" width="70.54" height="70.54" rx="2.07" style="fill:#a78867"/><path class="cls-2" d="M14.83 14.83h15.08v15.08H14.83zM45 14.83h15.08v15.08H45z"/><path class="cls-2" transform="rotate(180 67.625 37.46)" d="M60.08 29.92h15.08V45H60.08z"/><path class="cls-2" transform="rotate(180 37.46 37.46)" d="M29.92 29.92H45V45H29.92z"/><path class="cls-3" d="M14.83 45h15.08v15.08H14.83zM45 45h15.08v15.08H45z"/><path class="cls-3" transform="rotate(180 67.625 67.625)" d="M60.08 60.08h15.08v15.08H60.08z"/><path class="cls-3" transform="rotate(180 37.46 67.625)" d="M29.92 60.08H45v15.08H29.92z"/><g><path class="cls-4" d="M29.92 14.83H45v15.08H29.92zM60.08 14.83h15.08v15.08H60.08z"/><path class="cls-4" transform="rotate(180 52.54 37.46)" d="M45 29.92h15.08V45H45z"/><path class="cls-4" transform="rotate(180 22.375 37.46)" d="M14.83 29.92h15.08V45H14.83z"/><path class="cls-5" d="M29.92 45H45v15.08H29.92zM60.08 45h15.08v15.08H60.08z"/><path class="cls-5" transform="rotate(180 52.54 67.625)" d="M45 60.08h15.08v15.08H45z"/><path class="cls-5" transform="rotate(180 22.375 67.625)" d="M14.83 60.08h15.08v15.08H14.83z"/></g><path d="M27.28 38.31 9.73 66.4v11.85a2 2 0 0 0 2 2h66.5a2 2 0 0 0 2-1.81 1.48 1.48 0 0 0 0-.21V17.06L50 52.54Z" style="opacity:.15"/><g><path d="m63.6 15.9 7.26 7.26-20.08 20.31-14.17-14a1.74 1.74 0 0 0-2.46 0L.51 62.84a1.74 1.74 0 0 0 0 2.46l8.24 8.23a1.74 1.74 0 0 0 2.46 0l24.17-23.94L49.49 63.7a1.74 1.74 0 0 0 2.46 0l29.61-29.85 7.25 7.26a.7.7 0 0 0 1.19-.5v-25.2a.7.7 0 0 0-.7-.7H64.1a.7.7 0 0 0-.5 1.19Z" style="fill:#ca3431"/><path class="cls-8" d="m50.85 53.43 37.22-36.46H68.16l6.19 6.15-23.3 23.53-.2 6.78zM35.22 39.33 6.52 67.79l-2-2-1.27-1.27L35.1 32.91Z"/></g></g></svg>