<svg xmlns="http://www.w3.org/2000/svg" xmlns:xlink="http://www.w3.org/1999/xlink" width="90" height="90" viewBox="0 0 90 90">
  <defs>
    <style>
      .cls-1 {
        fill: none;
      }

      .cls-2 {
        fill: #a2a2a1;
      }

      .cls-3 {
        fill: #c7c8ca;
      }

      .cls-4, .cls-7 {
        fill: #6c9e41;
      }

      .cls-5 {
        clip-path: url(#clip-path);
      }

      .cls-6 {
        fill: #97bd4c;
      }

      .cls-7 {
        stroke: #6c9e41;
        stroke-miterlimit: 10;
        stroke-width: 2.92px;
      }

      .cls-10, .cls-8 {
        fill: #fff;
      }

      .cls-8 {
        opacity: 0.4;
      }

      .cls-9 {
        opacity: 0.1;
      }
    </style>
    <clipPath id="clip-path">
      <path class="cls-1" d="M68.06,25.31c-8.29-.2-14-2.24-22-9.25a1.63,1.63,0,0,0-2.08,0c-8,7-13.73,9.05-22,9.25a1.41,1.41,0,0,0-1.38,1.41V42.88c0,12.77,8.47,21,23.29,31.1a2.21,2.21,0,0,0,2.3,0C61,63.91,69.44,55.65,69.44,42.88V26.72A1.41,1.41,0,0,0,68.06,25.31Z"/>
    </clipPath>
  </defs>
  <g id="Layer_1" data-name="Layer 1">
    <g>
      <path class="cls-2" d="M77.94,16.24C66.1,16,58,13.05,46.48,3a2.3,2.3,0,0,0-3,0C32.05,13,23.91,16,12.06,16.24a2,2,0,0,0-2,2V42.6c0,18.24,12.09,30.05,33.27,44.43a3.17,3.17,0,0,0,3.28,0C67.82,72.65,79.91,60.84,79.91,42.6V18.26A2,2,0,0,0,77.94,16.24Z"/>
      <path class="cls-3" d="M75.74,18.26c-11-.26-18.65-3-29.36-12.33a2.13,2.13,0,0,0-2.76,0C32.91,15.27,25.31,18,14.26,18.26a1.88,1.88,0,0,0-1.84,1.88V42.66c0,17,11.28,28.05,31.05,41.47a3,3,0,0,0,3.06,0C66.3,70.71,77.58,59.69,77.58,42.66V20.14A1.88,1.88,0,0,0,75.74,18.26Z"/>
      <path class="cls-4" d="M70.25,23.29c-9.08-.21-15.32-2.45-24.12-10.13a1.75,1.75,0,0,0-2.26,0c-8.8,7.68-15,9.92-24.12,10.13a1.54,1.54,0,0,0-1.51,1.55v18c0,14,9.26,23,25.5,34.07a2.43,2.43,0,0,0,2.52,0c16.24-11,25.5-20.08,25.5-34.07v-18A1.54,1.54,0,0,0,70.25,23.29Z"/>
      <g class="cls-5">
        <g>
          <path class="cls-6" d="M46.69,9.81,22.3,20.49c-4.12,0-8,1.24-8,5.41l.3,19.38H46.13Z"/>
          <path class="cls-6" d="M46.13,79.51h6.33c4.12,0,20.75-19.36,20.75-23.52V45.28H46.13Z"/>
        </g>
      </g>
      <path class="cls-7" d="M61.58,37,44,54.77a2,2,0,0,1-2.5.23,1.92,1.92,0,0,1-.32-.26l-10.08-10a2,2,0,0,1,0-2.82l2.45-2.52a2,2,0,0,1,2.78,0l6.26,6.2L56.32,31.68a1.94,1.94,0,0,1,2.78,0l2.48,2.49A2,2,0,0,1,61.58,37Z"/>
      <path class="cls-3" d="M61.58,37,44,54.77a2,2,0,0,1-2.5.23,1.92,1.92,0,0,1-.32-.26l-10.08-10a2,2,0,0,1,0-2.82l2.45-2.52a2,2,0,0,1,2.78,0l6.26,6.2L56.32,31.68a1.94,1.94,0,0,1,2.78,0l2.48,2.49A2,2,0,0,1,61.58,37Z"/>
      <path class="cls-8" d="M18.24,42.81v-18a1.54,1.54,0,0,1,1.51-1.55c9.08-.21,15.32-2.45,24.12-10.13a1.75,1.75,0,0,1,2.26,0,48.63,48.63,0,0,0,9.28,6.61q.5-4.72.53-9.63A70.47,70.47,0,0,1,46.48,3a2.3,2.3,0,0,0-3,0C32.05,13,23.91,16,12.06,16.24a2,2,0,0,0-2,2V42.6c0,11.87,5.14,21,14.55,29.91a52.66,52.66,0,0,0,6.68-5C22.88,60.11,18.24,52.7,18.24,42.81Z"/>
      <path class="cls-8" d="M42.54,45.59l-6.26-6.2a2,2,0,0,0-2.78,0l-2.45,2.52a2,2,0,0,0,0,2.82l10.08,10a1.92,1.92,0,0,0,.32.26,1.67,1.67,0,0,0,.53.24A78,78,0,0,0,51,37.1Z"/>
    </g>
    <g class="cls-9">
      <path class="cls-10" d="M53.8,18.83a52.35,52.35,0,0,1-7.67-5.67,1.75,1.75,0,0,0-2.26,0c-8.8,7.68-15,9.92-24.12,10.13a1.54,1.54,0,0,0-1.51,1.55v18c0,9.23,4.1,16.31,11.5,23.22A70.88,70.88,0,0,0,53.8,18.83Z"/>
    </g>
  </g>
</svg>
