<svg xmlns="http://www.w3.org/2000/svg" width="90" height="90" viewBox="0 0 90 90">
  <defs>
    <style>
      .cls-1 {
        fill: #bebdb9;
      }

      .cls-2 {
        fill: #8b8987;
      }

      .cls-3 {
        fill: #dad8d6;
      }
    </style>
  </defs>
  <g id="Layer_1" data-name="Layer 1">
    <g>
      <g>
        <path class="cls-1" d="M85,52.49v-15L73.32,35.15A30.38,30.38,0,0,0,72,31.93L78.59,22,68,11.4,58.06,18a30.38,30.38,0,0,0-3.22-1.35L52.5,5h-15L35.16,16.67A30.38,30.38,0,0,0,31.94,18L22,11.4,11.41,22,18,31.93a30.38,30.38,0,0,0-1.35,3.22L5,37.49v15l11.68,2.34A30.54,30.54,0,0,0,18,58.06L11.41,68,22,78.58,31.94,72a32.56,32.56,0,0,0,3.22,1.34L37.5,85h15l2.34-11.68A32.56,32.56,0,0,0,58.06,72L68,78.58,78.59,68,72,58.06a30.54,30.54,0,0,0,1.35-3.23ZM45,55A10,10,0,1,1,55,45,10,10,0,0,1,45,55Z"/>
        <path class="cls-2" d="M45,27.49A17.5,17.5,0,1,1,27.5,45,17.52,17.52,0,0,1,45,27.49M45,25A20,20,0,1,0,65,45,20,20,0,0,0,45,25Z"/>
      </g>
      <path class="cls-3" d="M45,27.49A17.5,17.5,0,1,0,62.5,45,17.52,17.52,0,0,0,45,27.49ZM45,55A10,10,0,1,1,55,45,10,10,0,0,1,45,55Z"/>
    </g>
  </g>
</svg>
