<svg xmlns="http://www.w3.org/2000/svg" width="90" height="90" viewBox="0 0 90 90">
  <defs>
    <style>
      .cls-1 {
        fill: #9293b3;
      }

      .cls-2 {
        fill: #7a7aa2;
      }
    </style>
  </defs>
  <g id="Layer_1" data-name="Layer 1">
    <g>
      <g>
        <path class="cls-1" d="M68.39.83a2,2,0,0,0-2.76-.5L60.22,5.74a2.07,2.07,0,0,0-.11,3,46,46,0,0,1,0,59.37,2.07,2.07,0,0,0,.11,3l5.41,5.41a2,2,0,0,0,2.76-.5,57.34,57.34,0,0,0,0-75.27Z"/>
        <path class="cls-1" d="M51.85,16.74a1.57,1.57,0,0,0-2.4-.23l-5.94,5.95a1.9,1.9,0,0,0,.12,2.39,22.9,22.9,0,0,1,0,27.24,1.89,1.89,0,0,0-.12,2.38l5.94,6a1.57,1.57,0,0,0,2.4-.23,34.57,34.57,0,0,0,0-43.45Z"/>
      </g>
      <path class="cls-1" d="M21.59,54.66l0,6.58c-.2,1.95-.32,7.75-9,13.2-3.18,2-5,5.85-5,10.55h37.2c0-4.7-1.83-8.55-5-10.55-8.66-5.44-8.8-11.25-9-13.2l0-6.58Z"/>
      <path class="cls-2" d="M28.54,56.87s-2.22-.71-7-.27l0,4.64c-.19,1.81-.32,6.92-7.24,12C21.2,70.38,26.74,61.86,28.54,56.87Z"/>
      <rect class="cls-1" x="17.63" y="52.23" width="17" height="5.73" rx="0.93"/>
      <path class="cls-2" d="M35,40a8.87,8.87,0,1,1-8.86-8.87A8.86,8.86,0,0,1,35,40Z"/>
      <circle class="cls-1" cx="27.78" cy="38.47" r="6.46"/>
      <path class="cls-2" d="M17.63,53.16V57a.92.92,0,0,0,.93.92h4.18V52.23H18.56A.93.93,0,0,0,17.63,53.16Z"/>
    </g>
  </g>
</svg>
