<?xml version="1.0" encoding="utf-8"?>
<!-- Generator: Adobe Illustrator 26.3.1, SVG Export Plug-In . SVG Version: 6.00 Build 0)  -->
<svg version="1.1" id="Layer_1" xmlns="http://www.w3.org/2000/svg" xmlns:xlink="http://www.w3.org/1999/xlink" x="0px" y="0px"
	 viewBox="0 0 90 90" style="enable-background:new 0 0 90 90;" xml:space="preserve">
<style type="text/css">
	.st0{fill-rule:evenodd;clip-rule:evenodd;fill:#4C7737;}
	.st1{fill-rule:evenodd;clip-rule:evenodd;fill:#68923E;}
	.st2{fill:#537C38;}
	.st3{fill:#6C9D40;}
	.st4{fill:#C5D4A1;}
</style>
<g>
	<path class="st0" d="M65.9,18.5c-1.1-1.1-2.3-2.1-3.6-3l-3.6,5.2c1,0.7,1.9,1.5,2.7,2.3c8.2,8.2,9.1,21.2,2.1,30.4l4.9,4
		C77.5,45.6,76.4,29,65.9,18.5z"/>
	<path class="st1" d="M27.7,15.5c-1.3,0.9-2.5,1.9-3.6,3C13.6,29,12.5,45.6,21.6,57.3l4.9-4c-6.9-9.2-6.1-22.2,2.1-30.3
		c0.8-0.8,1.7-1.6,2.7-2.3L27.7,15.5z"/>
	<path class="st0" d="M76.4,7.9c-1.7-1.7-3.6-3.3-5.6-4.8l-3.6,5.2c1.7,1.2,3.3,2.5,4.8,4C85.5,26,86.9,47.6,75.1,62.7l4.9,4
		C93.8,49,92.3,23.8,76.4,7.9L76.4,7.9z"/>
	<path class="st1" d="M13.5,7.9C-2.3,23.8-3.8,49.1,10,66.7l4.9-4C3.1,47.6,4.4,26,18,12.4c1.5-1.5,3.1-2.8,4.8-4l-3.6-5.2
		C17.1,4.6,15.3,6.2,13.5,7.9z"/>
	<g id="Layer_1_00000037688394996268357400000017628916558903807654_">
		<g>
			<path class="st2" d="M61,66c-7.4-5.6-8.3-10.5-8.4-13.6H58l0.6-1.1c0.9-1.6,1.4-3.4,1.4-5.2v-1.1l-5.8-3.8
				c4.2-5,3.6-12.6-1.5-16.8c-0.9-0.8-2-1.4-3.1-1.9L48.7,22L48.6,22c-6.3-2-13,1.5-15,7.8c-1.2,3.9-0.4,8.1,2.2,11.2L30,44.9v1.1
				c0,1.8,0.4,3.6,1.3,5.2l0.6,1.1h5.4v0.1c-0.1,3.1-1.1,8-8.4,13.5c-2.4,1.9-4.3,4.5-5.3,7.4l-0.1,0.3c0,0.1,0,0.1-0.1,0.2
				l-0.6,1.9l0.1,0c-0.4,1.6-0.6,3.3-0.5,5c0,4,7.6,6.1,22.6,6.1s22.6-2,22.6-6.1C67.6,74.5,65.2,69.2,61,66z"/>
			<g>
				<path class="st3" d="M44.6,71.2c1.1-5,2.1-10.4,2.7-13.6c0.7-4-5.4-4.7-7.8-5.1c-0.1,3.4-1.1,9-9.2,15.2c-2.3,1.8-3.9,4.2-4.8,7
					c2.2,1.1,5.1,1.7,9.7,1.7C38,76.4,43.4,76.7,44.6,71.2z"/>
				<path class="st3" d="M48.9,50.3c0.6-1.3,0.8-2.8,0.8-4.2l-4-4.7c4.3-1.8,6.9-5.3,6.9-9.3c0-3.1-1.4-6-3.9-7.8l0,0
					c-5-2-10.8,0.5-12.8,5.5c-1.7,4.2-0.3,8.9,3.3,11.6l-7.1,4.7c0,1.5,0.4,2.9,1.1,4.2H48.9z"/>
				<path class="st4" d="M44.4,25.6c5.6,0.9-2.6,7.5-5.2,7.2C36.7,32.5,39.1,24.8,44.4,25.6z"/>
			</g>
		</g>
	</g>
</g>
</svg>
