<svg xmlns="http://www.w3.org/2000/svg" width="90" height="90" viewBox="0 0 90 90">
  <defs>
    <style>
      .cls-1 {
        fill: #95704d;
      }

      .cls-2 {
        fill: #fcd157;
      }

      .cls-3 {
        fill: #fed859;
      }

      .cls-4 {
        fill: #f2ac23;
      }

      .cls-5 {
        fill: #fbe28b;
      }
    </style>
  </defs>
  <g id="Layer_1" data-name="Layer 1">
    <g>
      <rect class="cls-1" x="15.43" y="60" width="59.14" height="30" rx="5.96"/>
      <rect class="cls-2" x="28.71" y="67.5" width="32.47" height="8.13"/>
      <g>
        <path class="cls-3" d="M78.7,6.23l-.12-2.11H63.7V0H26.31V4.13H11.42L11.3,6.22s0,.29,0,.71a26.43,26.43,0,0,0,2.29,10.81A15.78,15.78,0,0,0,18.69,24a16,16,0,0,0,9.14,2.74,18.76,18.76,0,0,0,12,10.55v6.27a10.45,10.45,0,0,1-10.44,10.3h-.65V60H61.18V53.82h-.65A10.43,10.43,0,0,1,50.1,43.39V37.28A18.74,18.74,0,0,0,62.17,26.7,16,16,0,0,0,71.31,24a17.14,17.14,0,0,0,6.36-9.59,27.57,27.57,0,0,0,1-7.44C78.71,6.51,78.7,6.27,78.7,6.23Zm-57,13.49a12,12,0,0,1-4.35-6.78,23.93,23.93,0,0,1-.75-3.63h9.74v10a18.66,18.66,0,0,0,.12,2.14A10.15,10.15,0,0,1,21.67,19.72Zm50.05-4.21a10.42,10.42,0,0,1-3.4,4.21,10,10,0,0,1-4.75,1.7,18.63,18.63,0,0,0,.13-2.14v-10h9.73A20.08,20.08,0,0,1,71.72,15.51Z"/>
        <path class="cls-2" d="M78.7,6.23l-.12-2.11H63.7V0H26.31V4.13H11.42L11.3,6.22s0,.29,0,.71a26.43,26.43,0,0,0,2.29,10.81A15.78,15.78,0,0,0,18.69,24a16,16,0,0,0,9.14,2.74,18.76,18.76,0,0,0,12,10.55v6.27a10.45,10.45,0,0,1-10.44,10.3h-.65V60H61.18V53.82h-.65A10.43,10.43,0,0,1,50.1,43.39V37.28A18.74,18.74,0,0,0,62.17,26.7,16,16,0,0,0,71.31,24a17.14,17.14,0,0,0,6.36-9.59,27.57,27.57,0,0,0,1-7.44C78.71,6.51,78.7,6.27,78.7,6.23Zm-57,13.49a12,12,0,0,1-4.35-6.78,23.93,23.93,0,0,1-.75-3.63h9.74v10a18.66,18.66,0,0,0,.12,2.14A10.15,10.15,0,0,1,21.67,19.72Zm50.05-4.21a10.42,10.42,0,0,1-3.4,4.21,10,10,0,0,1-4.75,1.7,18.63,18.63,0,0,0,.13-2.14v-10h9.73A20.08,20.08,0,0,1,71.72,15.51Z"/>
        <path class="cls-4" d="M39.8,37.25v6.27a10.45,10.45,0,0,1-10.44,10.3h-.65V60H61.18V53.82h-.65A10.43,10.43,0,0,1,50.1,43.39V37.28Z"/>
        <path class="cls-2" d="M39.8,39v4.5a10.45,10.45,0,0,1-10.44,10.3h-.65V60H61.18V53.82h-.65C45.77,53.82,39.8,39,39.8,39Z"/>
        <path class="cls-4" d="M62.17,26.7A16,16,0,0,0,71.31,24a17.14,17.14,0,0,0,6.36-9.59,27.57,27.57,0,0,0,1-7.44c0-.42,0-.66,0-.7l-.12-2.11H63.7V9.31h9.73a20.08,20.08,0,0,1-1.71,6.2,10.42,10.42,0,0,1-3.4,4.21,10,10,0,0,1-4.75,1.7Z"/>
        <path class="cls-4" d="M26.43,21.42a9.92,9.92,0,0,1-4.75-1.69,10.42,10.42,0,0,1-3.4-4.21,20.08,20.08,0,0,1-1.71-6.2H26.3V4.13H11.42L11.3,6.24s0,.28,0,.7a27.93,27.93,0,0,0,1,7.43A17.16,17.16,0,0,0,18.7,24a16,16,0,0,0,9.13,2.72Z"/>
        <path class="cls-5" d="M27.83,26.7C45,26.7,45,.22,45,0H26.31V19.28a11.17,11.17,0,0,0,.12,2.14A18.74,18.74,0,0,0,27.83,26.7Z"/>
      </g>
    </g>
  </g>
</svg>
