<svg xmlns="http://www.w3.org/2000/svg" width="90" height="90" viewBox="0 0 90 90">
  <defs>
    <style>
      .cls-1 {
        opacity: 0.3;
      }

      .cls-2 {
        fill: #fff;
      }

      .cls-3 {
        fill: #e58f2a;
      }

      .cls-4 {
        opacity: 0.2;
      }
    </style>
  </defs>
  <g id="Layer_1" data-name="Layer 1">
    <g>
      <g class="cls-1">
        <path class="cls-2" d="M90,70.64a8.1,8.1,0,0,1-8.09,8.1H8.09A8.1,8.1,0,0,1,0,70.64V19.34a8.1,8.1,0,0,1,8.09-8.1H81.91A8.1,8.1,0,0,1,90,19.34Z"/>
      </g>
      <g>
        <path class="cls-3" d="M28.12,28.8c0-3,2.14-4.25,4.77-2.85L63.66,42.44c2.62,1.41,2.62,3.7,0,5.1L32.89,64c-2.63,1.4-4.77.12-4.77-2.85Z"/>
        <g class="cls-4">
          <path class="cls-2" d="M63.66,42.44,32.89,26c-2.63-1.4-4.77-.12-4.77,2.85V54.06C35.08,40.45,46.62,36.83,63.66,42.44Z"/>
        </g>
      </g>
    </g>
  </g>
</svg>
