<svg fill="none" xmlns="http://www.w3.org/2000/svg" viewBox="0 0 91 91">
  <g clip-path="url(#a)">
    <path
      d="M54.07 12.07a8.16 8.16 0 0 0-8.14 7.67 8.16 8.16 0 1 0-8.14 8.66 7.894 7.894 0 0 0 1.1-.08l7 7.69 7-7.69c.364.052.732.079 1.1.08a8.17 8.17 0 1 0 .08-16.33Z"
      fill="#666564" />
    <path
      d="M74.18 24.13a15.51 15.51 0 0 0-28.25 8.38 15.51 15.51 0 0 0-28.24-8.38L5.93 40.38l16.12 5.69a15.339 15.339 0 0 0 6.73 2.37l17.15 6.03 17.12-6a15.338 15.338 0 0 0 6.76-2.4l16.12-5.69-11.75-16.25Z"
      fill="#8A8886" />
    <path
      d="m64.93 48.14-12.4-9.59s-6.31 3.34-6.6-6.41c-.29 9.75-6.58 6.41-6.58 6.41l-12.42 9.59c.604.136 1.215.236 1.83.3l17.17 6.03 17.12-6c.633-.072 1.26-.182 1.88-.33Z"
      fill="#666564" />
    <path
      d="M68.42 77c12.432 0 22.51-10.078 22.51-22.51 0-12.432-10.078-22.51-22.51-22.51-12.432 0-22.51 10.078-22.51 22.51C45.91 66.922 55.988 77 68.42 77Z"
      fill="#BDBCB8" />
    <path
      d="M68.42 70.88c9.052 0 16.39-7.338 16.39-16.39S77.472 38.1 68.42 38.1s-16.39 7.338-16.39 16.39 7.338 16.39 16.39 16.39Z"
      fill="#8A8886" />
    <path d="M68.42 38.07c3.299-.008 6.522.99 9.24 2.86a16.39 16.39 0 0 1-22.73 22.81 16.39 16.39 0 0 1 13.49-25.67Z"
      fill="#B8D0E0" />
    <path
      d="M68.42 38.07c1.774 0 3.537.286 5.22.85a16.051 16.051 0 0 1-21.43 18c-.12-.821-.181-1.65-.18-2.48a16.39 16.39 0 0 1 16.39-16.37Z"
      fill="#E3E8EB" />
    <path
      d="M23.44 77c12.432 0 22.51-10.078 22.51-22.51 0-12.432-10.078-22.51-22.51-22.51C11.008 31.98.93 42.058.93 54.49.93 66.922 11.008 77 23.44 77Z"
      fill="#BDBCB8" />
    <path
      d="M23.44 70.88c9.052 0 16.39-7.338 16.39-16.39S32.492 38.1 23.44 38.1 7.05 45.438 7.05 54.49s7.338 16.39 16.39 16.39Z"
      fill="#8A8886" />
    <path d="M23.44 38.07a16.23 16.23 0 0 0-9.24 2.86 16.39 16.39 0 0 0 22.73 22.81 16.391 16.391 0 0 0-13.49-25.67Z"
      fill="#B8D0E0" />
    <path
      d="M23.44 38.07c-1.775 0-3.538.286-5.22.85-.185.99-.28 1.994-.28 3a16 16 0 0 0 21.7 15c.129-.82.192-1.65.19-2.48a16.39 16.39 0 0 0-16.39-16.37Z"
      fill="#E3E8EB" />
  </g>
  <defs>
    <clipPath id="a">
      <path fill="#fff" transform="translate(.93 .07)" d="M0 0h90v90H0z" />
    </clipPath>
  </defs>
</svg>